<?xml version="1.0" encoding="UTF-8" standalone="no"?>
<svg
   xmlns:dc="http://purl.org/dc/elements/1.1/"
   xmlns:cc="http://creativecommons.org/ns#"
   xmlns:rdf="http://www.w3.org/1999/02/22-rdf-syntax-ns#"
   xmlns:svg="http://www.w3.org/2000/svg"
   xmlns="http://www.w3.org/2000/svg"
   xmlns:sodipodi="http://sodipodi.sourceforge.net/DTD/sodipodi-0.dtd"
   xmlns:inkscape="http://www.inkscape.org/namespaces/inkscape"
   id="svg88"
   viewBox="0 0 500.00001 500.00001"
   version="1.1"
   height="500"
   width="500"
   sodipodi:docname="socratic-circle.svg"
   inkscape:export-filename="/Users/Pranav/Documents/CS390-WAP/TheSocraticCircle/frontend/the-socratic-circle/public/logos/socratic-circle.png"
   inkscape:export-xdpi="96"
   inkscape:export-ydpi="96"
   inkscape:version="0.92.2 5c3e80d, 2017-08-06">
  <sodipodi:namedview
     pagecolor="#ffffff"
     bordercolor="#666666"
     borderopacity="1"
     objecttolerance="10"
     gridtolerance="10"
     guidetolerance="10"
     inkscape:pageopacity="0"
     inkscape:pageshadow="2"
     inkscape:window-width="723"
     inkscape:window-height="480"
     id="namedview16"
     showgrid="false"
     inkscape:zoom="0.472"
     inkscape:cx="250"
     inkscape:cy="250"
     inkscape:window-x="181"
     inkscape:window-y="58"
     inkscape:window-maximized="0"
     inkscape:current-layer="svg88" />
  <metadata
     id="metadata94">
    <rdf:RDF>
      <cc:Work
         rdf:about="">
        <dc:format>image/svg+xml</dc:format>
        <dc:type
           rdf:resource="http://purl.org/dc/dcmitype/StillImage" />
        <dc:title />
      </cc:Work>
    </rdf:RDF>
  </metadata>
  <defs
     id="defs92" />
  <path
     id="path6829"
     d="M 153.33038,420.73551 56.038815,364.48477 V 250.88946 137.29414 L 153.33038,81.072494 c 53.51036,-30.921908 97.91095,-56.121386 98.66797,-55.998841 0.75703,0.122544 45.0308,25.411995 98.38615,56.198779 l 97.00975,55.975968 -0.20608,113.70683 -0.20607,113.70682 -97.29157,56.19876 c -53.51036,30.90931 -97.69139,56.18226 -98.18007,56.16209 -0.48868,-0.0202 -44.66972,-25.3495 -98.18008,-56.28739 z m 191.02911,-15.85527 86.62948,-50.07114 0.18829,-103.89356 0.18828,-103.89356 -89.36782,-51.533429 C 292.84542,67.145163 252.37803,43.858384 252.07018,43.740154 251.76233,43.621924 211.12779,66.840585 161.7712,95.337179 L 72.031949,147.14917 v 103.73958 103.73959 l 89.739251,51.80879 89.73926,51.8088 3.10977,-1.64728 c 1.71038,-0.90599 42.09305,-24.17928 89.73926,-51.71841 z"
     style="opacity:1;fill:#de8787;fill-opacity:0;fill-rule:evenodd;stroke-width:0.88850749" />
  <path
     id="path6831"
     d="M 162.3039,405.79373 72.831606,354.14285 V 250.89513 147.64741 l 89.411364,-51.631948 89.41137,-51.631952 89.62289,51.743889 89.62289,51.743891 -0.0228,103.08647 -0.0228,103.08646 -86.08261,49.639 c -47.34543,27.30144 -87.63803,50.56653 -89.5391,51.70019 l -3.45649,2.06121 -89.47229,-51.65089 z m 149.59708,-33.1878 c 6.62172,-1.96174 11.45974,-4.95637 16.20746,-10.03206 13.52052,-14.45453 13.52052,-35.47953 0,-49.93407 -13.08653,-13.99055 -34.65587,-15.30372 -49.64364,-3.02237 l -3.73447,3.06011 -40.8533,-23.56576 -40.8533,-23.56576 2.13201,-5.27835 c 2.22738,-5.51444 2.86918,-13.12021 1.6903,-20.03131 l -0.6197,-3.63293 39.81462,-22.95917 c 21.89803,-12.62753 40.48181,-23.36332 41.29727,-23.85729 1.16578,-0.70618 2.24825,-0.2065 5.0645,2.33782 10.21585,9.22941 26.79413,11.12138 39.79821,4.54191 6.57305,-3.32566 14.6405,-12.0533 17.29426,-18.70952 1.66486,-4.17585 2.06492,-6.8749 2.08303,-14.05355 0.0205,-8.13402 -0.211,-9.37327 -2.73892,-14.66038 -4.04478,-8.45958 -9.00486,-13.56912 -17.01545,-17.52817 -6.5548,-3.23956 -7.09718,-3.35175 -16.2033,-3.35175 -9.10612,0 -9.6485,0.11219 -16.2033,3.35175 -8.01027,3.95889 -12.97016,9.06808 -17.01599,17.52817 -2.45713,5.13804 -2.76208,6.65767 -2.76357,13.77187 -8.9e-4,4.39811 0.19822,8.92438 0.44256,10.05838 0.40885,1.89747 -2.84753,3.9626 -40.85296,25.90816 l -41.29721,23.84635 -3.46578,-3.13113 c -1.90618,-1.72212 -5.71282,-4.18473 -8.45921,-5.47248 -4.44656,-2.08496 -6.06378,-2.34137 -14.767,-2.34137 -8.7915,0 -10.29461,0.24409 -14.95882,2.42918 -7.18722,3.36707 -11.44123,6.96143 -15.58736,13.17032 -9.5533,14.30618 -7.57647,33.46747 4.72152,45.76546 11.18298,11.18298 27.79161,13.95141 41.9986,7.00057 l 4.8116,-2.3541 18.38373,10.58491 c 10.11104,5.82169 28.97917,16.70608 41.92916,24.18753 l 23.54545,13.60263 v 10.77757 c 0,10.00112 0.17893,11.14193 2.48363,15.83514 4.80329,9.78125 14.55738,17.88352 24.27621,20.16512 5.52089,1.29608 13.84504,1.10329 19.05916,-0.44143 z"
     style="opacity:1;fill:none;fill-opacity:1;fill-rule:evenodd;stroke-width:0.88850749" />
  <path
     id="path6841"
     d="M 153.01605,420.51981 55.054732,363.91894 55.280221,250.75608 55.50571,137.59322 153.14221,81.222716 c 53.70008,-31.003779 98.08103,-56.358624 98.62433,-56.3441 0.54331,0.01452 44.76903,25.319392 98.2794,56.233037 l 97.29156,56.206627 v 113.57407 113.57408 l -96.84731,55.96837 c -53.26602,30.78261 -97.44706,56.12982 -98.18008,56.32714 -0.73301,0.19731 -45.41534,-25.11164 -99.29406,-56.24213 z m 192.41238,-16.27491 85.44518,-49.31217 0.0133,-104.00387 0.0133,-104.00387 -89.01394,-51.388729 c -48.95766,-28.263802 -89.46,-51.432024 -90.0052,-51.484937 -0.54519,-0.05291 -41.24174,23.093839 -90.43677,51.437227 l -89.445499,51.533429 0.194321,103.9071 0.19432,103.90709 89.648508,51.74678 89.64851,51.74677 4.14945,-2.38632 c 2.28219,-1.31249 42.59977,-24.57681 89.59461,-51.6985 z"
     style="opacity:1;fill:#801466;fill-opacity:0;fill-rule:evenodd;stroke-width:0.88850749" />
  <path
     id="path6843"
     d="M 160.0416,406.57193 70.555302,354.86783 70.761283,251.49514 70.967264,148.12245 160.15684,96.62878 c 49.05427,-28.321517 89.59565,-51.482813 90.09195,-51.469546 0.4963,0.01326 40.89588,23.12891 89.77685,51.368096 l 88.87448,51.34396 v 103.74833 103.74833 l -88.46866,51.12632 c -48.65776,28.11949 -89.01653,51.27381 -89.68613,51.45406 -0.66959,0.18024 -41.48628,-22.93913 -90.70373,-51.3764 z m 175.76601,-14.8669 78.05298,-45.04598 0.0121,-95.00608 0.0122,-95.00608 L 332.5719,109.704 C 287.84976,83.88542 250.85144,62.72157 250.35341,62.673235 249.85538,62.624905 212.67966,83.76913 167.74068,109.66042 l -81.707208,47.07507 0.17751,94.91768 0.177508,94.91767 81.89266,47.26996 81.89266,47.26995 3.79046,-2.17987 c 2.08475,-1.19894 38.9143,-22.45057 81.84343,-47.22585 z"
     style="opacity:1;fill:#801e0f;fill-opacity:1;fill-rule:evenodd;stroke-width:0.81163913" />
  <g
     id="layer1">
    <circle
       r="46.202389"
       cy="55.938347"
       cx="249.44762"
       id="path6908"
       style="opacity:1;fill:#801e0f;fill-opacity:1;fill-rule:evenodd" />
    <circle
       style="opacity:1;fill:#801e0f;fill-opacity:1;fill-rule:evenodd"
       id="circle6910"
       cx="249.44762"
       cy="445.0773"
       r="46.202389" />
    <circle
       style="opacity:1;fill:#801e0f;fill-opacity:1;fill-rule:evenodd"
       id="circle6912"
       cx="78.408218"
       cy="153.25909"
       r="46.202389" />
    <circle
       r="46.202389"
       cy="152.81656"
       cx="419.15253"
       id="circle6914"
       style="opacity:1;fill:#801e0f;fill-opacity:1;fill-rule:evenodd" />
    <circle
       r="46.202389"
       cy="348.06522"
       cx="79.296722"
       id="circle6930"
       style="opacity:1;fill:#801e0f;fill-opacity:1;fill-rule:evenodd" />
    <circle
       style="opacity:1;fill:#801e0f;fill-opacity:1;fill-rule:evenodd"
       id="circle6932"
       cx="419.59509"
       cy="349.84222"
       r="46.202389" />
  </g>
</svg>
